<svg xmlns="http://www.w3.org/2000/svg" width="189.54" height="35" viewBox="0 0 189.54 35"><rect class="svg__rect" x="0" y="0" width="98.84" height="35" fill="#D9077A"/><rect class="svg__rect" x="96.84" y="0" width="92.69999999999999" height="35" fill="#344E41"/><path class="svg__text" d="M15.00 22L13.46 22L16.68 13.47L18.01 13.47L21.24 22L19.69 22L18.99 20.01L15.69 20.01L15.00 22ZM17.34 15.28L16.10 18.82L18.58 18.82L17.34 15.28ZM26.67 22L25.19 22L25.19 13.47L27.11 13.47L29.57 20.01L32.03 13.47L33.95 13.47L33.95 22L32.47 22L32.47 19.19L32.62 15.43L30.10 22L29.04 22L26.52 15.43L26.67 19.19L26.67 22ZM39.47 22L37.92 22L41.15 13.47L42.48 13.47L45.71 22L44.16 22L43.46 20.01L40.16 20.01L39.47 22ZM41.81 15.28L40.57 18.82L43.05 18.82L41.81 15.28ZM55.61 22L49.26 22L49.26 21.04L53.67 14.66L49.29 14.66L49.29 13.47L55.47 13.47L55.47 14.41L51.06 20.82L55.61 20.82L55.61 22ZM61.44 22L59.96 22L59.96 13.47L61.44 13.47L61.44 22ZM67.73 22L66.25 22L66.25 13.47L67.73 13.47L71.55 19.54L71.55 13.47L73.02 13.47L73.02 22L71.53 22L67.73 15.95L67.73 22ZM77.51 18.13L77.51 18.13L77.51 17.46Q77.51 15.53 78.44 14.44Q79.36 13.35 81.02 13.35L81.02 13.35Q82.44 13.35 83.28 14.05Q84.12 14.76 84.29 16.08L84.29 16.08L82.84 16.08Q82.59 14.54 81.05 14.54L81.05 14.54Q80.05 14.54 79.53 15.26Q79.02 15.98 79.00 17.37L79.00 17.37L79.00 18.02Q79.00 19.40 79.58 20.17Q80.16 20.93 81.20 20.93L81.20 20.93Q82.34 20.93 82.82 20.42L82.82 20.42L82.82 18.75L81.06 18.75L81.06 17.62L84.30 17.62L84.30 20.89Q83.83 21.50 83.01 21.81Q82.19 22.12 81.15 22.12L81.15 22.12Q80.08 22.12 79.25 21.63Q78.42 21.14 77.98 20.24Q77.53 19.33 77.51 18.13Z" fill="#344E41"/><path class="svg__text" d="M117.77 22L111.03 22L111.03 13.60L117.62 13.60L117.62 15.44L113.38 15.44L113.38 16.85L117.12 16.85L117.12 18.63L113.38 18.63L113.38 20.17L117.77 20.17L117.77 22ZM125.16 22L121.57 13.60L124.14 13.60L126.42 19.07L128.75 13.60L131.10 13.60L127.50 22L125.16 22ZM141.99 22L135.25 22L135.25 13.60L141.84 13.60L141.84 15.44L137.61 15.44L137.61 16.85L141.34 16.85L141.34 18.63L137.61 18.63L137.61 20.17L141.99 20.17L141.99 22ZM149.13 22L146.80 22L146.80 13.60L148.76 13.60L152.47 18.07L152.47 13.60L154.79 13.60L154.79 22L152.84 22L149.13 17.52L149.13 22ZM161.75 15.48L159.16 15.48L159.16 13.60L166.69 13.60L166.69 15.48L164.12 15.48L164.12 22L161.75 22L161.75 15.48ZM170.47 21.24L170.47 21.24L171.25 19.49Q171.81 19.86 172.56 20.09Q173.30 20.32 174.02 20.32L174.02 20.32Q175.39 20.32 175.39 19.64L175.39 19.64Q175.39 19.28 175.00 19.11Q174.61 18.93 173.75 18.74L173.75 18.74Q172.80 18.53 172.16 18.30Q171.53 18.06 171.07 17.55Q170.62 17.03 170.62 16.16L170.62 16.16Q170.62 15.39 171.04 14.77Q171.46 14.15 172.29 13.79Q173.13 13.43 174.33 13.43L174.33 13.43Q175.16 13.43 175.96 13.62Q176.77 13.80 177.39 14.17L177.39 14.17L176.65 15.93Q175.45 15.28 174.32 15.28L174.32 15.28Q173.61 15.28 173.29 15.49Q172.97 15.70 172.97 16.04L172.97 16.04Q172.97 16.37 173.35 16.54Q173.73 16.71 174.58 16.89L174.58 16.89Q175.55 17.10 176.18 17.33Q176.81 17.56 177.27 18.07Q177.73 18.58 177.73 19.46L177.73 19.46Q177.73 20.21 177.31 20.83Q176.89 21.44 176.05 21.80Q175.21 22.17 174.01 22.17L174.01 22.17Q172.99 22.17 172.03 21.92Q171.07 21.67 170.47 21.24Z" fill="#F2C2DC" x="109.84"/></svg>